<mxfile host="app.diagrams.net" agent="Mozilla/5.0 (X11; Linux x86_64; rv:139.0) Gecko/20100101 Firefox/139.0" version="27.2.0">
  <diagram name="Page-1" id="tjWYGv6dYZ68JQAWaqvs">
    <mxGraphModel dx="1306" dy="711" grid="1" gridSize="10" guides="1" tooltips="1" connect="1" arrows="1" fold="1" page="1" pageScale="1" pageWidth="850" pageHeight="1100" math="0" shadow="0">
      <root>
        <mxCell id="0" />
        <mxCell id="1" parent="0" />
        <mxCell id="ekeXqVOjkHd2DoKavvex-19" style="edgeStyle=orthogonalEdgeStyle;rounded=0;orthogonalLoop=1;jettySize=auto;html=1;entryX=0;entryY=0.5;entryDx=0;entryDy=0;" parent="1" source="9AseFqFGKK6DM0dfCawy-1" target="ekeXqVOjkHd2DoKavvex-3" edge="1">
          <mxGeometry relative="1" as="geometry" />
        </mxCell>
        <mxCell id="9AseFqFGKK6DM0dfCawy-1" value="Usuario A" style="shape=umlActor;verticalLabelPosition=bottom;verticalAlign=top;html=1;outlineConnect=0;" parent="1" vertex="1">
          <mxGeometry x="80" y="290" width="30" height="60" as="geometry" />
        </mxCell>
        <mxCell id="ekeXqVOjkHd2DoKavvex-35" style="edgeStyle=orthogonalEdgeStyle;rounded=0;orthogonalLoop=1;jettySize=auto;html=1;entryX=0;entryY=0.5;entryDx=0;entryDy=0;" parent="1" source="9AseFqFGKK6DM0dfCawy-2" target="ekeXqVOjkHd2DoKavvex-22" edge="1">
          <mxGeometry relative="1" as="geometry" />
        </mxCell>
        <mxCell id="ekeXqVOjkHd2DoKavvex-57" value="include" style="edgeLabel;html=1;align=center;verticalAlign=middle;resizable=0;points=[];" parent="ekeXqVOjkHd2DoKavvex-35" vertex="1" connectable="0">
          <mxGeometry x="-0.5865" y="1" relative="1" as="geometry">
            <mxPoint as="offset" />
          </mxGeometry>
        </mxCell>
        <mxCell id="9AseFqFGKK6DM0dfCawy-2" value="Crear zona" style="rounded=0;whiteSpace=wrap;html=1;" parent="1" vertex="1">
          <mxGeometry x="340" y="250" width="120" height="60" as="geometry" />
        </mxCell>
        <mxCell id="9AseFqFGKK6DM0dfCawy-5" value="Personalizar zona" style="rounded=0;whiteSpace=wrap;html=1;" parent="1" vertex="1">
          <mxGeometry x="860" y="250" width="120" height="60" as="geometry" />
        </mxCell>
        <mxCell id="9AseFqFGKK6DM0dfCawy-6" value="Editar recuerdo" style="rounded=0;whiteSpace=wrap;html=1;" parent="1" vertex="1">
          <mxGeometry x="1471.58" y="325" width="120" height="60" as="geometry" />
        </mxCell>
        <mxCell id="9AseFqFGKK6DM0dfCawy-7" value="Visualizar archivados" style="rounded=0;whiteSpace=wrap;html=1;" parent="1" vertex="1">
          <mxGeometry x="860" y="170" width="120" height="60" as="geometry" />
        </mxCell>
        <mxCell id="9AseFqFGKK6DM0dfCawy-8" value="Eliminar recuerdo" style="rounded=0;whiteSpace=wrap;html=1;" parent="1" vertex="1">
          <mxGeometry x="1471.58" y="400" width="120" height="60" as="geometry" />
        </mxCell>
        <mxCell id="ekeXqVOjkHd2DoKavvex-1" value="Archivar recuerdo" style="rounded=0;whiteSpace=wrap;html=1;" parent="1" vertex="1">
          <mxGeometry x="1471.58" y="475" width="120" height="60" as="geometry" />
        </mxCell>
        <mxCell id="ekeXqVOjkHd2DoKavvex-15" style="edgeStyle=orthogonalEdgeStyle;rounded=0;orthogonalLoop=1;jettySize=auto;html=1;exitX=1;exitY=0.5;exitDx=0;exitDy=0;" parent="1" source="ekeXqVOjkHd2DoKavvex-2" target="ekeXqVOjkHd2DoKavvex-4" edge="1">
          <mxGeometry relative="1" as="geometry" />
        </mxCell>
        <mxCell id="ekeXqVOjkHd2DoKavvex-55" value="include" style="edgeLabel;html=1;align=center;verticalAlign=middle;resizable=0;points=[];" parent="ekeXqVOjkHd2DoKavvex-15" vertex="1" connectable="0">
          <mxGeometry x="-0.0061" y="1" relative="1" as="geometry">
            <mxPoint as="offset" />
          </mxGeometry>
        </mxCell>
        <mxCell id="ekeXqVOjkHd2DoKavvex-2" value="Guardar zona" style="rounded=0;whiteSpace=wrap;html=1;" parent="1" vertex="1">
          <mxGeometry x="860" y="475" width="120" height="60" as="geometry" />
        </mxCell>
        <mxCell id="ekeXqVOjkHd2DoKavvex-38" style="edgeStyle=orthogonalEdgeStyle;rounded=0;orthogonalLoop=1;jettySize=auto;html=1;exitX=1;exitY=0.5;exitDx=0;exitDy=0;entryX=0;entryY=0.5;entryDx=0;entryDy=0;" parent="1" source="ekeXqVOjkHd2DoKavvex-3" target="ekeXqVOjkHd2DoKavvex-36" edge="1">
          <mxGeometry relative="1" as="geometry" />
        </mxCell>
        <mxCell id="ekeXqVOjkHd2DoKavvex-3" value="Visualizar zona(s)" style="rounded=0;whiteSpace=wrap;html=1;" parent="1" vertex="1">
          <mxGeometry x="150" y="290" width="120" height="60" as="geometry" />
        </mxCell>
        <mxCell id="ekeXqVOjkHd2DoKavvex-4" value="Compartír zona" style="rounded=0;whiteSpace=wrap;html=1;" parent="1" vertex="1">
          <mxGeometry x="1141.58" y="475" width="120" height="60" as="geometry" />
        </mxCell>
        <mxCell id="ekeXqVOjkHd2DoKavvex-9" style="edgeStyle=orthogonalEdgeStyle;rounded=0;orthogonalLoop=1;jettySize=auto;html=1;" parent="1" source="ekeXqVOjkHd2DoKavvex-5" target="ekeXqVOjkHd2DoKavvex-6" edge="1">
          <mxGeometry relative="1" as="geometry" />
        </mxCell>
        <mxCell id="ekeXqVOjkHd2DoKavvex-53" value="include" style="edgeLabel;html=1;align=center;verticalAlign=middle;resizable=0;points=[];" parent="ekeXqVOjkHd2DoKavvex-9" vertex="1" connectable="0">
          <mxGeometry x="-0.1152" y="3" relative="1" as="geometry">
            <mxPoint as="offset" />
          </mxGeometry>
        </mxCell>
        <mxCell id="ekeXqVOjkHd2DoKavvex-5" value="Ver recuerdo" style="rounded=0;whiteSpace=wrap;html=1;" parent="1" vertex="1">
          <mxGeometry x="860" y="400" width="120" height="60" as="geometry" />
        </mxCell>
        <mxCell id="ekeXqVOjkHd2DoKavvex-10" style="edgeStyle=orthogonalEdgeStyle;rounded=0;orthogonalLoop=1;jettySize=auto;html=1;exitX=1;exitY=0.5;exitDx=0;exitDy=0;entryX=0;entryY=0.5;entryDx=0;entryDy=0;" parent="1" source="ekeXqVOjkHd2DoKavvex-6" target="9AseFqFGKK6DM0dfCawy-6" edge="1">
          <mxGeometry relative="1" as="geometry" />
        </mxCell>
        <mxCell id="ekeXqVOjkHd2DoKavvex-11" style="edgeStyle=orthogonalEdgeStyle;rounded=0;orthogonalLoop=1;jettySize=auto;html=1;exitX=1;exitY=0.5;exitDx=0;exitDy=0;" parent="1" source="ekeXqVOjkHd2DoKavvex-6" target="9AseFqFGKK6DM0dfCawy-8" edge="1">
          <mxGeometry relative="1" as="geometry" />
        </mxCell>
        <mxCell id="ekeXqVOjkHd2DoKavvex-6" value="Abrir menú" style="rounded=0;whiteSpace=wrap;html=1;" parent="1" vertex="1">
          <mxGeometry x="1141.58" y="400" width="120" height="60" as="geometry" />
        </mxCell>
        <mxCell id="ekeXqVOjkHd2DoKavvex-12" style="edgeStyle=orthogonalEdgeStyle;rounded=0;orthogonalLoop=1;jettySize=auto;html=1;exitX=1;exitY=0.5;exitDx=0;exitDy=0;entryX=-0.007;entryY=0.559;entryDx=0;entryDy=0;entryPerimeter=0;" parent="1" source="ekeXqVOjkHd2DoKavvex-6" target="ekeXqVOjkHd2DoKavvex-1" edge="1">
          <mxGeometry relative="1" as="geometry" />
        </mxCell>
        <mxCell id="ekeXqVOjkHd2DoKavvex-54" value="include" style="edgeLabel;html=1;align=center;verticalAlign=middle;resizable=0;points=[];" parent="ekeXqVOjkHd2DoKavvex-12" vertex="1" connectable="0">
          <mxGeometry x="-0.5968" relative="1" as="geometry">
            <mxPoint as="offset" />
          </mxGeometry>
        </mxCell>
        <mxCell id="ekeXqVOjkHd2DoKavvex-27" style="edgeStyle=orthogonalEdgeStyle;rounded=0;orthogonalLoop=1;jettySize=auto;html=1;exitX=1;exitY=0.5;exitDx=0;exitDy=0;entryX=0;entryY=0.5;entryDx=0;entryDy=0;" parent="1" target="9AseFqFGKK6DM0dfCawy-7" edge="1">
          <mxGeometry relative="1" as="geometry">
            <mxPoint x="690" y="320" as="sourcePoint" />
            <mxPoint x="770" y="200" as="targetPoint" />
            <Array as="points">
              <mxPoint x="780" y="320" />
              <mxPoint x="780" y="200" />
            </Array>
          </mxGeometry>
        </mxCell>
        <mxCell id="ekeXqVOjkHd2DoKavvex-30" style="edgeStyle=orthogonalEdgeStyle;rounded=0;orthogonalLoop=1;jettySize=auto;html=1;entryX=0;entryY=0.5;entryDx=0;entryDy=0;" parent="1" source="ekeXqVOjkHd2DoKavvex-22" target="9AseFqFGKK6DM0dfCawy-5" edge="1">
          <mxGeometry relative="1" as="geometry">
            <Array as="points">
              <mxPoint x="780" y="320" />
              <mxPoint x="780" y="280" />
            </Array>
          </mxGeometry>
        </mxCell>
        <mxCell id="ekeXqVOjkHd2DoKavvex-31" style="edgeStyle=orthogonalEdgeStyle;rounded=0;orthogonalLoop=1;jettySize=auto;html=1;exitX=1;exitY=0.5;exitDx=0;exitDy=0;entryX=0;entryY=0.5;entryDx=0;entryDy=0;" parent="1" source="ekeXqVOjkHd2DoKavvex-22" target="ekeXqVOjkHd2DoKavvex-5" edge="1">
          <mxGeometry relative="1" as="geometry">
            <Array as="points">
              <mxPoint x="780" y="320" />
              <mxPoint x="780" y="430" />
            </Array>
          </mxGeometry>
        </mxCell>
        <mxCell id="ekeXqVOjkHd2DoKavvex-33" style="edgeStyle=orthogonalEdgeStyle;rounded=0;orthogonalLoop=1;jettySize=auto;html=1;exitX=1;exitY=0.5;exitDx=0;exitDy=0;entryX=0;entryY=0.5;entryDx=0;entryDy=0;" parent="1" source="ekeXqVOjkHd2DoKavvex-22" target="ekeXqVOjkHd2DoKavvex-2" edge="1">
          <mxGeometry relative="1" as="geometry">
            <Array as="points">
              <mxPoint x="780" y="320" />
              <mxPoint x="780" y="505" />
            </Array>
          </mxGeometry>
        </mxCell>
        <mxCell id="ekeXqVOjkHd2DoKavvex-43" style="edgeStyle=orthogonalEdgeStyle;rounded=0;orthogonalLoop=1;jettySize=auto;html=1;exitX=1;exitY=0.5;exitDx=0;exitDy=0;entryX=0;entryY=0.5;entryDx=0;entryDy=0;" parent="1" source="ekeXqVOjkHd2DoKavvex-22" target="ekeXqVOjkHd2DoKavvex-42" edge="1">
          <mxGeometry relative="1" as="geometry">
            <Array as="points">
              <mxPoint x="780" y="320" />
              <mxPoint x="780" y="120" />
            </Array>
          </mxGeometry>
        </mxCell>
        <mxCell id="ekeXqVOjkHd2DoKavvex-45" style="edgeStyle=orthogonalEdgeStyle;rounded=0;orthogonalLoop=1;jettySize=auto;html=1;exitX=1;exitY=0.5;exitDx=0;exitDy=0;" parent="1" source="ekeXqVOjkHd2DoKavvex-22" target="ekeXqVOjkHd2DoKavvex-44" edge="1">
          <mxGeometry relative="1" as="geometry">
            <Array as="points">
              <mxPoint x="780" y="320" />
              <mxPoint x="780" y="355" />
            </Array>
          </mxGeometry>
        </mxCell>
        <mxCell id="ekeXqVOjkHd2DoKavvex-56" value="exclude" style="edgeLabel;html=1;align=center;verticalAlign=middle;resizable=0;points=[];" parent="ekeXqVOjkHd2DoKavvex-45" vertex="1" connectable="0">
          <mxGeometry x="-0.654" y="-2" relative="1" as="geometry">
            <mxPoint as="offset" />
          </mxGeometry>
        </mxCell>
        <mxCell id="ekeXqVOjkHd2DoKavvex-22" value="Visualizar zona" style="rounded=0;whiteSpace=wrap;html=1;" parent="1" vertex="1">
          <mxGeometry x="590" y="290" width="120" height="60" as="geometry" />
        </mxCell>
        <mxCell id="ekeXqVOjkHd2DoKavvex-25" style="edgeStyle=orthogonalEdgeStyle;rounded=0;orthogonalLoop=1;jettySize=auto;html=1;entryX=0.032;entryY=0.485;entryDx=0;entryDy=0;entryPerimeter=0;" parent="1" source="ekeXqVOjkHd2DoKavvex-3" target="9AseFqFGKK6DM0dfCawy-2" edge="1">
          <mxGeometry relative="1" as="geometry" />
        </mxCell>
        <mxCell id="ekeXqVOjkHd2DoKavvex-37" style="edgeStyle=orthogonalEdgeStyle;rounded=0;orthogonalLoop=1;jettySize=auto;html=1;exitX=1;exitY=0.5;exitDx=0;exitDy=0;entryX=0;entryY=0.5;entryDx=0;entryDy=0;" parent="1" source="ekeXqVOjkHd2DoKavvex-36" target="ekeXqVOjkHd2DoKavvex-22" edge="1">
          <mxGeometry relative="1" as="geometry" />
        </mxCell>
        <mxCell id="ekeXqVOjkHd2DoKavvex-58" value="exclude" style="edgeLabel;html=1;align=center;verticalAlign=middle;resizable=0;points=[];" parent="ekeXqVOjkHd2DoKavvex-37" vertex="1" connectable="0">
          <mxGeometry x="-0.6338" y="-1" relative="1" as="geometry">
            <mxPoint as="offset" />
          </mxGeometry>
        </mxCell>
        <mxCell id="ekeXqVOjkHd2DoKavvex-36" value="Ingresar zona" style="rounded=0;whiteSpace=wrap;html=1;" parent="1" vertex="1">
          <mxGeometry x="340" y="330" width="120" height="60" as="geometry" />
        </mxCell>
        <mxCell id="ekeXqVOjkHd2DoKavvex-42" value="Escuchar música" style="rounded=0;whiteSpace=wrap;html=1;" parent="1" vertex="1">
          <mxGeometry x="860" y="90" width="120" height="60" as="geometry" />
        </mxCell>
        <mxCell id="ekeXqVOjkHd2DoKavvex-49" style="edgeStyle=orthogonalEdgeStyle;rounded=0;orthogonalLoop=1;jettySize=auto;html=1;exitX=1;exitY=0.5;exitDx=0;exitDy=0;entryX=0;entryY=0.5;entryDx=0;entryDy=0;" parent="1" source="ekeXqVOjkHd2DoKavvex-44" target="ekeXqVOjkHd2DoKavvex-46" edge="1">
          <mxGeometry relative="1" as="geometry" />
        </mxCell>
        <mxCell id="ekeXqVOjkHd2DoKavvex-50" style="edgeStyle=orthogonalEdgeStyle;rounded=0;orthogonalLoop=1;jettySize=auto;html=1;exitX=1;exitY=0.5;exitDx=0;exitDy=0;entryX=0;entryY=0.5;entryDx=0;entryDy=0;" parent="1" source="ekeXqVOjkHd2DoKavvex-44" target="ekeXqVOjkHd2DoKavvex-47" edge="1">
          <mxGeometry relative="1" as="geometry" />
        </mxCell>
        <mxCell id="ekeXqVOjkHd2DoKavvex-51" style="edgeStyle=orthogonalEdgeStyle;rounded=0;orthogonalLoop=1;jettySize=auto;html=1;exitX=1;exitY=0.5;exitDx=0;exitDy=0;" parent="1" source="ekeXqVOjkHd2DoKavvex-44" target="ekeXqVOjkHd2DoKavvex-48" edge="1">
          <mxGeometry relative="1" as="geometry" />
        </mxCell>
        <mxCell id="ekeXqVOjkHd2DoKavvex-52" value="include" style="edgeLabel;html=1;align=center;verticalAlign=middle;resizable=0;points=[];" parent="ekeXqVOjkHd2DoKavvex-51" vertex="1" connectable="0">
          <mxGeometry x="-0.4424" y="-1" relative="1" as="geometry">
            <mxPoint as="offset" />
          </mxGeometry>
        </mxCell>
        <mxCell id="ekeXqVOjkHd2DoKavvex-44" value="Agregar Recuerdo" style="rounded=0;whiteSpace=wrap;html=1;" parent="1" vertex="1">
          <mxGeometry x="860" y="325" width="120" height="60" as="geometry" />
        </mxCell>
        <mxCell id="ekeXqVOjkHd2DoKavvex-46" value="Texto" style="rounded=0;whiteSpace=wrap;html=1;" parent="1" vertex="1">
          <mxGeometry x="1141.58" y="165" width="120" height="60" as="geometry" />
        </mxCell>
        <mxCell id="ekeXqVOjkHd2DoKavvex-47" value="Imagen" style="rounded=0;whiteSpace=wrap;html=1;" parent="1" vertex="1">
          <mxGeometry x="1141.58" y="245" width="120" height="60" as="geometry" />
        </mxCell>
        <mxCell id="ekeXqVOjkHd2DoKavvex-48" value="Video" style="rounded=0;whiteSpace=wrap;html=1;" parent="1" vertex="1">
          <mxGeometry x="1141.58" y="325" width="120" height="60" as="geometry" />
        </mxCell>
      </root>
    </mxGraphModel>
  </diagram>
</mxfile>
